<svg width="512" height="512" viewBox="0 0 512 512" fill="none" xmlns="http://www.w3.org/2000/svg">
<path d="M326.08 49.28C323.166 48.0547 319.955 47.72 316.851 48.318C313.747 48.9159 310.89 50.4199 308.64 52.64L116.64 244.64C115.14 246.127 113.95 247.897 113.138 249.847C112.325 251.797 111.907 253.888 111.907 256C111.907 258.112 112.325 260.203 113.138 262.153C113.95 264.103 115.14 265.873 116.64 267.36L308.64 459.36C310.135 460.843 311.908 462.016 313.857 462.812C315.807 463.609 317.894 464.012 320 464C322.099 464.054 324.181 463.616 326.08 462.72C329.002 461.52 331.503 459.481 333.268 456.862C335.034 454.242 335.984 451.159 336 448V64C335.984 60.8412 335.034 57.7577 333.268 55.1382C331.503 52.5187 329.002 50.4803 326.08 49.28ZM368 48C363.757 48 359.687 49.6857 356.686 52.6863C353.686 55.6869 352 59.7565 352 64V448C352 452.243 353.686 456.313 356.686 459.314C359.687 462.314 363.757 464 368 464C372.243 464 376.313 462.314 379.314 459.314C382.314 456.313 384 452.243 384 448V64C384 59.7565 382.314 55.6869 379.314 52.6863C376.313 49.6857 372.243 48 368 48Z" fill="white"/>
</svg>
