<svg width="512" height="512" viewBox="0 0 512 512" fill="none" xmlns="http://www.w3.org/2000/svg">
<path d="M255.351 216.149C255.351 220.928 259.191 224.683 263.885 224.683C273.613 224.683 281.463 232.619 281.463 242.261C281.463 246.955 285.303 250.795 289.997 250.795C294.69 250.795 298.53 246.955 298.53 242.261C298.53 223.147 282.999 207.616 263.885 207.616C259.191 207.616 255.351 211.456 255.351 216.149ZM394.274 250.795C399.053 250.795 402.807 246.955 402.807 242.261C402.807 165.632 340.514 103.339 263.885 103.339C259.191 103.339 255.351 107.179 255.351 111.872C255.351 116.565 259.191 120.405 263.885 120.405C331.127 120.405 385.741 175.104 385.741 242.261C385.741 246.955 389.581 250.795 394.274 250.795Z" fill="white"/>
<path d="M333.602 242.261C333.602 246.955 337.442 250.795 342.136 250.795C346.829 250.795 350.669 246.955 350.669 242.261C350.669 194.389 311.757 155.477 263.885 155.477C259.191 155.477 255.351 159.317 255.351 164.011C255.351 168.789 259.191 172.544 263.885 172.544C302.37 172.544 333.602 203.861 333.602 242.261ZM263.885 51.2C259.191 51.2 255.351 55.04 255.351 59.7333C255.351 64.4267 259.191 68.2667 263.885 68.2667C359.885 68.2667 437.965 146.347 437.965 242.261C437.965 246.955 441.72 250.795 446.498 250.795C451.192 250.795 455.032 246.955 455.032 242.261C455.032 136.875 369.271 51.2 263.885 51.2ZM347.255 332.203L336.077 338.261C317.218 348.587 293.325 345.088 278.05 329.813L187.938 239.701C172.663 224.427 169.165 200.533 179.49 181.589L185.549 170.496C192.375 157.867 194.85 143.701 192.802 129.536C190.868 115.399 184.33 102.294 174.199 92.2454C161.741 79.7867 145.186 72.96 127.522 72.96C109.858 72.96 93.2181 79.7867 80.7595 92.2454L76.4075 96.6827C53.3675 119.723 50.7221 159.403 68.8981 208.555C86.0501 255.488 120.61 306.347 166.007 351.744C235.213 420.949 312.269 460.8 367.565 460.8C389.41 460.8 407.928 454.571 421.069 441.429L425.506 436.992C431.651 430.854 436.525 423.564 439.849 415.54C443.173 407.516 444.881 398.915 444.877 390.229C444.757 372.739 437.806 355.988 425.506 343.552C404.941 322.987 372.77 318.379 347.255 332.203Z" fill="white"/>
</svg>
