<svg width="512" height="512" viewBox="0 0 512 512" fill="none" xmlns="http://www.w3.org/2000/svg">
<g clip-path="url(#clip0_6_15)">
<path d="M406.827 105.173C371.823 69.9414 325.624 48.0259 276.195 43.2052C226.765 38.3844 177.202 50.9606 136.051 78.7655C94.8997 106.57 64.7389 147.861 50.7683 195.52C36.7977 243.179 39.8928 294.219 59.52 339.84C61.5657 344.08 62.2369 348.853 61.44 353.493L42.6667 443.733C41.9434 447.193 42.0911 450.778 43.0965 454.167C44.1019 457.556 45.9335 460.641 48.4267 463.147C50.4705 465.176 52.904 466.77 55.5805 467.833C58.257 468.896 61.121 469.407 64 469.333H68.2667L159.573 450.987C164.214 450.429 168.92 451.09 173.227 452.907C218.848 472.534 269.888 475.629 317.546 461.658C365.205 447.688 406.496 417.527 434.301 376.376C462.106 335.225 474.682 285.662 469.862 236.232C465.041 186.802 443.125 140.603 407.893 105.6L406.827 105.173ZM170.667 277.333C166.447 277.333 162.323 276.082 158.815 273.738C155.306 271.394 152.572 268.062 150.957 264.164C149.343 260.266 148.92 255.976 149.743 251.838C150.566 247.7 152.598 243.899 155.582 240.915C158.565 237.932 162.366 235.9 166.505 235.077C170.643 234.253 174.932 234.676 178.831 236.291C182.729 237.905 186.061 240.64 188.405 244.148C190.749 247.656 192 251.781 192 256C192 261.658 189.752 267.084 185.752 271.085C181.751 275.086 176.325 277.333 170.667 277.333ZM256 277.333C251.781 277.333 247.656 276.082 244.148 273.738C240.64 271.394 237.905 268.062 236.291 264.164C234.676 260.266 234.253 255.976 235.077 251.838C235.9 247.7 237.932 243.899 240.915 240.915C243.899 237.932 247.7 235.9 251.838 235.077C255.976 234.253 260.266 234.676 264.164 236.291C268.062 237.905 271.394 240.64 273.738 244.148C276.082 247.656 277.333 251.781 277.333 256C277.333 261.658 275.086 267.084 271.085 271.085C267.084 275.086 261.658 277.333 256 277.333ZM341.333 277.333C337.114 277.333 332.989 276.082 329.481 273.738C325.973 271.394 323.239 268.062 321.624 264.164C320.009 260.266 319.587 255.976 320.41 251.838C321.233 247.7 323.265 243.899 326.248 240.915C329.232 237.932 333.033 235.9 337.171 235.077C341.31 234.253 345.599 234.676 349.497 236.291C353.395 237.905 356.727 240.64 359.071 244.148C361.416 247.656 362.667 251.781 362.667 256C362.667 261.658 360.419 267.084 356.418 271.085C352.418 275.086 346.991 277.333 341.333 277.333Z" fill="white"/>
</g>
<defs>
<clipPath id="clip0_6_15">
<rect width="512" height="512" fill="white"/>
</clipPath>
</defs>
</svg>
