<svg width="512" height="512" viewBox="0 0 512 512" fill="none" xmlns="http://www.w3.org/2000/svg">
<path d="M497.056 429.184L384.576 316.704C404.16 284.992 416 248 416 208C416 93.12 322.88 0 208 0C93.12 0 0 93.12 0 208C0 322.88 93.12 416 208 416C248 416 284.992 404.16 316.672 384.608L429.184 497.088C438.239 505.843 450.371 510.69 462.966 510.582C475.561 510.475 487.609 505.422 496.514 496.514C505.418 487.606 510.465 475.555 510.566 462.96C510.668 450.365 505.815 438.235 497.056 429.184ZM208 352C128.48 352 64 287.52 64 208C64 128.48 128.48 64 208 64C287.52 64 352 128.48 352 208C352 287.52 287.52 352 208 352Z" fill="white"/>
</svg>
