<svg width="114" height="23" viewBox="0 0 114 23" fill="none" xmlns="http://www.w3.org/2000/svg">
<g clip-path="url(#clip0_6_10)">
<path d="M15.5614 21.0748C15.3993 21.0744 15.2397 21.0346 15.0964 20.9588L9.9994 18.2788L4.9024 20.9588C4.73736 21.0453 4.55145 21.084 4.36563 21.0704C4.17981 21.0569 4.00147 20.9917 3.85071 20.8822C3.69996 20.7727 3.58278 20.6233 3.51241 20.4508C3.44203 20.2783 3.42125 20.0895 3.4524 19.9058L4.4254 14.2298L0.301398 10.2098C0.167988 10.0796 0.0736517 9.91463 0.0290423 9.73359C-0.0155671 9.55255 -0.00867329 9.36264 0.0489455 9.18532C0.106564 9.00799 0.212613 8.8503 0.355117 8.73006C0.49762 8.60982 0.670903 8.53181 0.855398 8.50485L6.5544 7.67685L9.1034 2.51285C9.19522 2.35669 9.32624 2.22722 9.48349 2.13727C9.64073 2.04732 9.81874 2 9.9999 2C10.1811 2 10.3591 2.04732 10.5163 2.13727C10.6736 2.22722 10.8046 2.35669 10.8964 2.51285L13.4444 7.67685L19.1434 8.50485C19.3279 8.53181 19.5012 8.60982 19.6437 8.73006C19.7862 8.8503 19.8922 9.00799 19.9499 9.18532C20.0075 9.36264 20.0144 9.55255 19.9698 9.73359C19.9251 9.91463 19.8308 10.0796 19.6974 10.2098L15.5734 14.2298L16.5474 19.9058C16.572 20.0493 16.565 20.1964 16.5268 20.3369C16.4887 20.4774 16.4203 20.6079 16.3265 20.7192C16.2327 20.8305 16.1157 20.92 15.9838 20.9815C15.8518 21.0429 15.707 21.0748 15.5614 21.0748Z" fill="#FA5E01"/>
<path d="M38.5614 21.0748C38.3993 21.0744 38.2397 21.0346 38.0964 20.9588L32.9994 18.2788L27.9024 20.9588C27.7374 21.0453 27.5515 21.084 27.3656 21.0704C27.1798 21.0569 27.0015 20.9917 26.8507 20.8822C26.7 20.7727 26.5828 20.6233 26.5124 20.4508C26.442 20.2783 26.4212 20.0895 26.4524 19.9058L27.4254 14.2298L23.3014 10.2098C23.168 10.0796 23.0737 9.91463 23.029 9.73359C22.9844 9.55255 22.9913 9.36264 23.0489 9.18532C23.1066 9.00799 23.2126 8.8503 23.3551 8.73006C23.4976 8.60982 23.6709 8.53181 23.8554 8.50485L29.5544 7.67685L32.1034 2.51285C32.1952 2.35669 32.3262 2.22722 32.4835 2.13727C32.6407 2.04732 32.8187 2 32.9999 2C33.1811 2 33.3591 2.04732 33.5163 2.13727C33.6736 2.22722 33.8046 2.35669 33.8964 2.51285L36.4444 7.67685L42.1434 8.50485C42.3279 8.53181 42.5012 8.60982 42.6437 8.73006C42.7862 8.8503 42.8922 9.00799 42.9499 9.18532C43.0075 9.36264 43.0144 9.55255 42.9698 9.73359C42.9251 9.91463 42.8308 10.0796 42.6974 10.2098L38.5734 14.2298L39.5474 19.9058C39.572 20.0493 39.565 20.1964 39.5268 20.3369C39.4887 20.4774 39.4203 20.6079 39.3265 20.7192C39.2327 20.8305 39.1157 20.92 38.9838 20.9815C38.8518 21.0429 38.707 21.0748 38.5614 21.0748Z" fill="#FA5E01"/>
<path d="M61.5614 21.0748C61.3993 21.0744 61.2397 21.0346 61.0964 20.9588L55.9994 18.2788L50.9024 20.9588C50.7374 21.0453 50.5515 21.084 50.3656 21.0704C50.1798 21.0569 50.0015 20.9917 49.8507 20.8822C49.7 20.7727 49.5828 20.6233 49.5124 20.4508C49.442 20.2783 49.4212 20.0895 49.4524 19.9058L50.4254 14.2298L46.3014 10.2098C46.168 10.0796 46.0737 9.91463 46.029 9.73359C45.9844 9.55255 45.9913 9.36264 46.0489 9.18532C46.1066 9.00799 46.2126 8.8503 46.3551 8.73006C46.4976 8.60982 46.6709 8.53181 46.8554 8.50485L52.5544 7.67685L55.1034 2.51285C55.1952 2.35669 55.3262 2.22722 55.4835 2.13727C55.6407 2.04732 55.8187 2 55.9999 2C56.1811 2 56.3591 2.04732 56.5163 2.13727C56.6736 2.22722 56.8046 2.35669 56.8964 2.51285L59.4444 7.67685L65.1434 8.50485C65.3279 8.53181 65.5012 8.60982 65.6437 8.73006C65.7862 8.8503 65.8922 9.00799 65.9499 9.18532C66.0075 9.36264 66.0144 9.55255 65.9698 9.73359C65.9251 9.91463 65.8308 10.0796 65.6974 10.2098L61.5734 14.2298L62.5474 19.9058C62.572 20.0493 62.565 20.1964 62.5268 20.3369C62.4887 20.4774 62.4203 20.6079 62.3265 20.7192C62.2327 20.8305 62.1157 20.92 61.9838 20.9815C61.8518 21.0429 61.707 21.0748 61.5614 21.0748Z" fill="#FA5E01"/>
<path d="M84.5614 21.0748C84.3993 21.0744 84.2397 21.0346 84.0964 20.9588L78.9994 18.2788L73.9024 20.9588C73.7374 21.0453 73.5515 21.084 73.3656 21.0704C73.1798 21.0569 73.0015 20.9917 72.8507 20.8822C72.7 20.7727 72.5828 20.6233 72.5124 20.4508C72.442 20.2783 72.4212 20.0895 72.4524 19.9058L73.4254 14.2298L69.3014 10.2098C69.168 10.0796 69.0737 9.91463 69.029 9.73359C68.9844 9.55255 68.9913 9.36264 69.0489 9.18532C69.1066 9.00799 69.2126 8.8503 69.3551 8.73006C69.4976 8.60982 69.6709 8.53181 69.8554 8.50485L75.5544 7.67685L78.1034 2.51285C78.1952 2.35669 78.3262 2.22722 78.4835 2.13727C78.6407 2.04732 78.8187 2 78.9999 2C79.1811 2 79.3591 2.04732 79.5163 2.13727C79.6736 2.22722 79.8046 2.35669 79.8964 2.51285L82.4444 7.67685L88.1434 8.50485C88.3279 8.53181 88.5012 8.60982 88.6437 8.73006C88.7862 8.8503 88.8922 9.00799 88.9499 9.18532C89.0075 9.36264 89.0144 9.55255 88.9698 9.73359C88.9251 9.91463 88.8308 10.0796 88.6974 10.2098L84.5734 14.2298L85.5474 19.9058C85.572 20.0493 85.565 20.1964 85.5268 20.3369C85.4887 20.4774 85.4203 20.6079 85.3265 20.7192C85.2327 20.8305 85.1157 20.92 84.9838 20.9815C84.8518 21.0429 84.707 21.0748 84.5614 21.0748Z" fill="#FA5E01"/>
<path d="M107.561 21.0748C107.399 21.0744 107.24 21.0346 107.096 20.9588L101.999 18.2788L96.9024 20.9588C96.7374 21.0453 96.5515 21.084 96.3656 21.0704C96.1798 21.0569 96.0015 20.9917 95.8507 20.8822C95.7 20.7727 95.5828 20.6233 95.5124 20.4508C95.442 20.2783 95.4212 20.0895 95.4524 19.9058L96.4254 14.2298L92.3014 10.2098C92.168 10.0796 92.0737 9.91463 92.029 9.73359C91.9844 9.55255 91.9913 9.36264 92.0489 9.18532C92.1066 9.00799 92.2126 8.8503 92.3551 8.73006C92.4976 8.60982 92.6709 8.53181 92.8554 8.50485L98.5544 7.67685L101.103 2.51285C101.195 2.35669 101.326 2.22722 101.483 2.13727C101.641 2.04732 101.819 2 102 2C102.181 2 102.359 2.04732 102.516 2.13727C102.674 2.22722 102.805 2.35669 102.896 2.51285L105.444 7.67685L111.143 8.50485C111.328 8.53181 111.501 8.60982 111.644 8.73006C111.786 8.8503 111.892 9.00799 111.95 9.18532C112.007 9.36264 112.014 9.55255 111.97 9.73359C111.925 9.91463 111.831 10.0796 111.697 10.2098L107.573 14.2298L108.547 19.9058C108.572 20.0493 108.565 20.1964 108.527 20.3369C108.489 20.4774 108.42 20.6079 108.327 20.7192C108.233 20.8305 108.116 20.92 107.984 20.9815C107.852 21.0429 107.707 21.0748 107.561 21.0748Z" fill="#FA5E01"/>
</g>
<defs>
<clipPath id="clip0_6_10">
<rect width="114" height="23" fill="white"/>
</clipPath>
</defs>
</svg>
