<svg width="512" height="512" viewBox="0 0 512 512" fill="none" xmlns="http://www.w3.org/2000/svg">
<path d="M391.68 193.92C389.248 192.516 386.489 191.776 383.68 191.776C380.871 191.776 378.112 192.516 375.68 193.92L311.68 235.04C309.427 236.486 307.572 238.474 306.286 240.822C305.001 243.17 304.324 245.803 304.32 248.48V224C304.32 211.27 299.263 199.061 290.261 190.059C281.259 181.057 269.05 176 256.32 176H160C147.27 176 135.061 181.057 126.059 190.059C117.057 199.061 112 211.27 112 224V288C112 300.73 117.057 312.939 126.059 321.941C135.061 330.943 147.27 336 160 336H256C268.73 336 280.939 330.943 289.941 321.941C298.943 312.939 304 300.73 304 288V262.88C304.004 265.557 304.681 268.19 305.966 270.538C307.252 272.886 309.107 274.874 311.36 276.32L375.36 317.44C377.935 319.104 380.934 319.992 384 320C386.68 320.013 389.321 319.353 391.68 318.08C394.205 316.698 396.311 314.661 397.775 312.183C399.239 309.705 400.008 306.878 400 304V208C400.008 205.122 399.239 202.295 397.775 199.817C396.311 197.339 394.205 195.302 391.68 193.92ZM272 288C272 292.243 270.314 296.313 267.314 299.314C264.313 302.314 260.243 304 256 304H160C155.757 304 151.687 302.314 148.686 299.314C145.686 296.313 144 292.243 144 288V224C144 219.757 145.686 215.687 148.686 212.686C151.687 209.686 155.757 208 160 208H256C260.243 208 264.313 209.686 267.314 212.686C270.314 215.687 272 219.757 272 224V288ZM368 274.72L338.88 256L368 237.28V274.72ZM256 32C196.591 32 139.616 55.6 97.6081 97.6081C55.5999 139.616 32 196.592 32 256C31.9008 312.306 53.239 366.538 91.68 407.68C82.6764 420.55 71.1327 431.441 57.76 439.68L39.84 450.4C36.901 452.22 34.6306 454.944 33.3688 458.162C32.107 461.381 31.9216 464.922 32.8403 468.254C33.7591 471.587 35.7326 474.533 38.4654 476.65C41.1982 478.767 44.5434 479.943 48 480H112C134.239 480.101 156.181 474.889 176 464.8C206.722 476.733 239.699 481.739 272.578 479.462C305.457 477.185 337.429 467.68 366.212 451.626C394.996 435.572 419.883 413.365 439.097 386.587C458.311 359.809 471.379 329.121 477.37 296.712C483.361 264.303 482.126 230.972 473.753 199.095C465.381 167.218 450.078 137.581 428.935 112.299C407.792 87.0163 381.33 66.7108 351.438 52.8307C321.545 38.9507 288.958 31.838 256 32ZM256 448C230.22 448.023 204.699 442.853 180.96 432.8H180C178.945 432.575 177.855 432.575 176.8 432.8H171.04L167.68 433.76H166.88C150.155 443.245 131.227 448.157 112 448H99.04C109.651 437.965 118.662 426.364 125.76 413.6C125.76 413.6 125.76 412.8 125.76 412.48L128 409.44C128.077 408.428 128.077 407.412 128 406.4C128.07 405.388 128.07 404.372 128 403.36C128.075 402.401 128.075 401.439 128 400.48C127.639 399.544 127.212 398.635 126.72 397.76C126.225 396.807 125.576 395.942 124.8 395.2C124.846 394.882 124.846 394.558 124.8 394.24C92.6478 363.245 72.306 322.011 67.2761 277.636C62.2461 233.261 72.8426 188.52 97.2416 151.115C121.641 113.709 158.316 85.9796 200.955 72.6981C243.593 59.4167 289.528 61.4144 330.853 78.3474C372.178 95.2805 406.307 126.09 427.367 165.472C448.426 204.854 455.098 250.346 446.235 294.117C437.372 337.888 413.527 377.2 378.805 405.287C344.083 433.374 300.657 448.478 256 448Z" fill="white"/>
<rect x="130" y="197" width="155" height="117" fill="white"/>
</svg>
